<?xml version="1.0" standalone="no"?>
<!DOCTYPE svg PUBLIC "-//W3C//DTD SVG 20010904//EN"
 "http://www.w3.org/TR/2001/REC-SVG-20010904/DTD/svg10.dtd">
<svg version="1.0" xmlns="http://www.w3.org/2000/svg"
 width="816.000000pt" height="816.000000pt" viewBox="0 0 816.000000 816.000000"
 preserveAspectRatio="xMidYMid meet">
<metadata>
Created by potrace 1.11, written by Peter Selinger 2001-2013
</metadata>
<g transform="translate(0.000000,816.000000) scale(0.100000,-0.100000)"
fill="#000000" stroke="none">
<path d="M3980 8150 c-31 -8 -443 -157 -495 -179 -11 -5 -36 -14 -55 -21 -19
-7 -44 -16 -55 -21 -11 -5 -65 -25 -120 -45 -55 -20 -134 -48 -175 -64 -41
-15 -109 -39 -150 -54 -41 -15 -84 -31 -95 -35 -64 -26 -90 -36 -190 -73 -146
-53 -426 -157 -445 -165 -8 -3 -19 -7 -25 -9 -5 -1 -46 -17 -90 -34 -44 -17
-87 -33 -95 -35 -14 -4 -139 -51 -400 -149 -69 -26 -129 -49 -135 -50 -5 -2
-17 -6 -25 -9 -8 -3 -75 -29 -149 -57 -74 -27 -153 -61 -175 -74 -86 -51 -161
-144 -200 -244 l-21 -57 -3 -2660 c-2 -1960 0 -2676 8 -2720 15 -75 39 -129
87 -191 40 -53 102 -113 117 -114 5 0 17 -6 25 -13 15 -13 69 -35 301 -120 52
-19 104 -38 115 -43 11 -4 22 -8 25 -9 3 -1 12 -5 20 -8 8 -3 89 -34 180 -67
91 -33 174 -64 185 -69 11 -5 49 -19 85 -31 36 -12 69 -26 75 -31 5 -5 17 -9
27 -9 10 0 26 -4 36 -9 9 -6 123 -49 252 -96 225 -82 262 -96 348 -130 20 -8
118 -44 217 -80 177 -65 292 -108 389 -146 27 -10 53 -19 57 -19 5 0 28 -9 52
-19 23 -11 80 -33 127 -49 47 -17 140 -51 207 -76 67 -25 130 -47 140 -49 10
-1 23 -6 29 -9 12 -8 175 -4 209 5 11 3 99 34 195 70 96 36 238 89 315 117 77
29 242 90 366 136 125 46 232 84 238 84 6 0 11 5 11 10 0 6 3 9 8 8 7 -2 80
21 97 31 6 3 15 6 20 7 10 2 143 51 215 79 19 8 105 40 190 71 85 31 173 64
195 74 22 9 54 21 70 25 40 11 37 10 65 23 14 6 172 65 352 131 433 160 471
175 523 205 64 38 139 118 170 182 58 119 55 -67 55 2814 0 2464 -1 2659 -17
2715 -24 84 -73 164 -138 223 -62 57 -115 84 -278 144 -144 52 -176 64 -207
76 -14 5 -27 10 -30 10 -3 1 -39 15 -80 32 -41 17 -76 30 -78 29 -2 0 -26 8
-55 19 -82 33 -541 204 -552 207 -5 1 -21 7 -35 12 -54 23 -299 113 -305 113
-4 0 -21 6 -38 14 -18 8 -95 38 -172 66 -77 28 -149 55 -160 60 -11 5 -108 41
-215 80 -107 39 -204 75 -215 80 -11 5 -83 32 -160 60 -77 28 -149 55 -160 59
-32 13 -127 48 -165 61 -44 15 -193 21 -240 10z m245 -637 c75 -98 141 -185
148 -193 7 -8 57 -73 112 -145 54 -71 115 -151 134 -176 20 -25 47 -60 61 -79
14 -18 30 -38 35 -44 6 -6 44 -56 85 -111 41 -55 81 -107 87 -115 7 -8 49 -62
92 -120 44 -58 84 -109 88 -115 5 -5 62 -80 127 -165 65 -85 123 -161 128
-167 7 -9 5 -15 -8 -19 -11 -3 -44 -18 -74 -32 -30 -15 -57 -27 -60 -27 -22
-3 -80 -31 -80 -39 0 -5 -2 -7 -5 -4 -3 3 -92 -33 -198 -79 -106 -47 -196 -86
-202 -87 -5 -1 -35 -14 -65 -28 -48 -22 -120 -54 -240 -105 -19 -8 -63 -28
-98 -44 -35 -16 -69 -29 -75 -29 -7 0 -17 -4 -22 -9 -6 -5 -35 -19 -64 -31
-41 -16 -60 -19 -75 -11 -25 12 -107 48 -196 86 -36 15 -83 36 -105 46 -22 10
-146 64 -275 119 -274 118 -355 154 -430 187 -30 14 -73 32 -95 41 -22 9 -58
25 -82 36 l-42 21 72 92 c40 50 81 103 91 118 11 14 27 35 35 46 26 31 48 60
97 124 25 33 56 74 69 90 12 17 109 143 214 280 105 138 197 257 204 265 6 8
46 60 87 115 41 55 81 104 88 108 6 4 12 14 12 22 0 7 4 15 8 17 4 2 65 78
136 171 70 92 132 167 137 167 4 0 69 -80 144 -177z m-696 -50 c-14 -16 -61
-75 -104 -133 -82 -109 -93 -122 -111 -143 -5 -7 -30 -39 -54 -72 -24 -33 -47
-61 -52 -63 -4 -2 -8 -7 -8 -12 0 -5 -9 -19 -20 -32 -11 -12 -63 -79 -116
-148 -52 -69 -101 -132 -108 -141 -7 -8 -31 -40 -53 -70 -76 -101 -302 -394
-328 -426 -21 -24 -31 -30 -44 -23 -26 14 -126 62 -128 61 -4 0 -71 27 -109
44 -27 13 -204 89 -649 282 -82 36 -166 72 -185 81 -19 9 -38 16 -42 16 -3 1
-9 4 -12 7 -6 5 148 69 179 75 6 1 51 17 100 37 108 42 684 255 740 274 22 7
49 18 60 23 17 8 132 50 405 150 172 64 284 105 445 164 211 79 198 74 209 75
6 1 -2 -11 -15 -26z m1128 16 c54 -22 69 -28 193 -74 69 -26 130 -48 135 -49
6 -2 24 -8 40 -15 57 -22 131 -50 270 -101 77 -28 149 -55 160 -59 11 -5 47
-18 80 -31 33 -12 69 -26 80 -30 11 -5 47 -18 80 -30 33 -11 69 -25 80 -30 11
-5 61 -23 110 -41 50 -17 95 -35 100 -39 6 -4 21 -10 35 -12 14 -3 165 -58
335 -123 171 -64 329 -124 353 -132 24 -9 39 -19 35 -23 -9 -8 -192 -91 -208
-94 -5 -1 -28 -10 -50 -20 -80 -37 -124 -56 -328 -145 -115 -50 -210 -91 -212
-91 -3 0 -28 -11 -57 -24 -29 -14 -103 -47 -164 -74 l-111 -49 -19 24 c-10 13
-24 29 -30 36 -9 11 -52 67 -251 327 -40 52 -76 100 -81 105 -4 6 -21 28 -37
50 -17 22 -32 42 -35 45 -3 3 -34 43 -70 90 -35 47 -68 87 -72 88 -4 2 -8 10
-8 17 0 7 -4 15 -9 17 -4 2 -37 41 -72 88 -35 47 -68 90 -74 96 -5 7 -19 24
-30 40 -11 15 -62 81 -112 147 -51 66 -93 121 -93 123 0 6 7 5 37 -7z m-3027
-1203 c135 -59 254 -111 265 -116 35 -16 266 -116 370 -160 55 -24 101 -43
102 -44 1 -1 -36 -51 -82 -111 -105 -136 -88 -115 -299 -390 -97 -126 -182
-237 -189 -245 -7 -8 -39 -51 -71 -95 -33 -44 -64 -84 -70 -90 -6 -5 -38 -46
-71 -90 -127 -169 -218 -285 -224 -285 -5 0 -7 1724 -2 1739 0 2 7 1 14 -2 6
-3 122 -53 257 -111z m5177 -761 c0 -481 -1 -875 -3 -875 -1 0 -75 96 -165
213 -90 116 -168 217 -173 223 -6 6 -18 22 -26 34 -8 12 -33 45 -55 74 -22 29
-51 68 -65 86 -14 18 -29 38 -35 44 -5 6 -23 29 -40 51 -34 46 -34 47 -77 101
-18 23 -42 54 -53 70 -11 15 -45 60 -75 98 -110 140 -240 313 -240 318 0 3 18
13 40 22 21 8 58 24 82 35 154 70 180 81 184 81 3 0 31 12 62 26 31 14 66 29
77 34 11 5 46 20 77 34 52 24 105 47 118 51 6 2 17 7 205 89 83 36 153 65 156
66 3 0 6 -394 6 -875z m-4043 266 c37 -17 69 -31 71 -31 3 0 34 -13 70 -30 36
-16 67 -30 69 -30 2 0 30 -12 62 -27 33 -15 62 -27 65 -27 3 -1 33 -13 65 -28
33 -14 75 -33 94 -41 19 -9 98 -43 175 -77 132 -57 183 -80 230 -100 11 -5 27
-11 35 -13 17 -5 -38 -31 -295 -142 -99 -42 -199 -86 -222 -96 -86 -38 -131
-58 -273 -118 -158 -68 -183 -79 -250 -109 -25 -11 -115 -50 -200 -87 -85 -37
-173 -75 -195 -85 -22 -10 -60 -27 -85 -37 -25 -11 -110 -48 -190 -83 -80 -34
-201 -87 -269 -117 -68 -30 -125 -53 -126 -51 -2 2 26 41 62 88 36 47 84 110
106 140 23 30 89 116 147 191 58 75 114 148 125 163 11 15 28 37 37 49 24 29
24 30 93 122 33 44 65 85 70 91 6 6 100 128 209 271 227 296 193 273 320 214z
m2862 -93 c59 -79 119 -157 133 -174 14 -17 35 -44 46 -59 11 -15 63 -83 115
-150 52 -68 158 -205 235 -306 76 -101 142 -186 145 -189 3 -3 48 -61 100
-130 52 -69 110 -145 128 -170 19 -25 40 -48 46 -52 6 -5 2 -8 -11 -8 -13 0
-23 5 -23 10 0 6 -6 10 -13 10 -8 0 -27 6 -43 14 -16 8 -119 53 -229 101 -110
47 -219 95 -242 106 -24 10 -45 19 -47 19 -3 0 -33 13 -68 29 -35 16 -79 36
-98 44 -132 56 -190 82 -225 97 -22 10 -94 41 -160 70 -66 28 -133 58 -150 65
-16 8 -140 62 -275 120 -135 58 -309 134 -387 168 -126 54 -166 77 -133 77 5
0 38 13 72 29 35 16 144 63 243 106 171 74 266 115 310 135 81 37 411 179 416
180 4 0 55 -64 115 -142z m-1431 -528 c72 -32 120 -53 125 -55 3 0 27 -11 54
-23 27 -12 50 -22 52 -22 2 0 29 -12 61 -26 61 -28 90 -40 163 -72 199 -87
259 -112 268 -112 5 0 15 -7 22 -15 7 -9 15 -14 17 -11 3 2 28 -6 56 -19 29
-13 90 -40 137 -60 47 -20 99 -43 115 -50 17 -7 84 -37 150 -65 66 -29 138
-60 160 -70 22 -10 108 -47 190 -83 396 -171 594 -258 640 -278 28 -12 50 -21
50 -19 0 2 14 -3 30 -12 17 -9 50 -25 75 -36 188 -82 240 -106 240 -111 0 -4
-17 -13 -37 -20 -21 -8 -66 -27 -101 -42 -34 -16 -64 -29 -67 -29 -2 0 -36
-15 -77 -34 -40 -18 -129 -57 -198 -86 -69 -28 -147 -62 -175 -75 -27 -13
-171 -76 -320 -140 -148 -64 -290 -125 -315 -137 -55 -25 -107 -48 -117 -50
-5 -1 -37 -15 -73 -31 -36 -16 -85 -38 -110 -49 -49 -21 -59 -25 -135 -59 -27
-13 -54 -24 -60 -25 -11 -2 -130 -55 -188 -85 -22 -10 -43 -19 -48 -19 -5 0
-37 -13 -71 -29 -35 -16 -133 -59 -218 -96 -85 -37 -171 -74 -190 -83 -19 -9
-37 -16 -40 -17 -7 -2 -44 -18 -114 -49 -37 -17 -66 -24 -80 -20 -11 4 -127
53 -256 109 -129 57 -424 185 -655 285 -231 100 -438 190 -460 200 -22 10
-105 46 -185 80 -80 34 -169 73 -198 86 -29 13 -80 36 -115 50 -34 14 -80 34
-102 44 -22 10 -74 32 -115 50 -41 18 -99 43 -128 56 -29 13 -55 24 -57 24 -2
0 -32 13 -67 29 -35 16 -92 41 -128 56 -36 15 -87 38 -115 50 -27 12 -69 30
-92 40 l-42 18 77 33 c42 17 84 35 92 38 8 3 22 10 30 15 8 5 60 28 115 51 55
24 128 55 163 71 35 16 69 29 76 29 6 0 16 4 22 9 5 5 38 21 74 36 36 15 83
35 105 45 101 46 391 172 400 174 14 4 49 19 120 52 33 15 62 28 65 29 3 1 21
8 40 17 19 9 69 30 110 48 41 18 81 37 88 42 6 6 12 7 12 4 0 -4 10 -1 23 6
12 7 24 13 27 13 3 0 20 9 37 18 18 10 35 17 38 18 3 0 26 9 52 20 69 30 97
42 103 44 12 4 60 25 133 58 42 20 78 36 80 35 1 0 28 11 60 26 32 14 59 26
61 26 5 0 176 78 198 90 10 6 23 10 29 10 5 0 36 12 67 26 31 15 77 35 102 46
25 11 58 25 75 33 58 26 56 26 170 -25z m2359 -1572 c-16 -27 -198 -253 -206
-256 -4 -2 -8 -8 -8 -14 0 -5 -6 -15 -12 -22 -16 -16 -212 -261 -401 -501 -4
-5 -17 -21 -28 -35 -12 -14 -33 -41 -48 -60 -14 -19 -28 -37 -31 -40 -3 -3
-30 -36 -60 -75 -30 -38 -61 -77 -67 -85 -7 -8 -45 -55 -84 -105 -142 -180
-126 -166 -162 -150 -18 7 -48 20 -67 28 -56 24 -432 188 -465 202 -75 34
-441 192 -454 196 -8 3 15 18 50 33 35 16 82 37 104 46 22 10 105 46 185 80
80 34 159 68 175 76 124 55 402 176 410 178 6 1 36 14 69 29 32 15 60 27 62
27 2 0 32 13 68 29 35 17 133 60 217 96 142 61 191 83 274 120 17 7 95 41 175
75 191 82 272 118 290 130 21 12 22 12 14 -2z m-4804 -58 c41 -18 93 -40 115
-50 22 -10 94 -41 160 -70 174 -75 175 -76 230 -100 56 -25 98 -43 105 -45 3
0 23 -9 45 -19 22 -10 49 -22 60 -26 11 -5 45 -20 75 -33 30 -13 136 -59 235
-102 99 -42 200 -86 225 -97 25 -11 92 -41 150 -65 58 -25 123 -53 145 -63 33
-15 128 -56 310 -135 17 -7 45 -19 63 -26 39 -17 40 -26 5 -40 -23 -8 -241
-103 -373 -161 -25 -11 -58 -26 -75 -33 -119 -52 -208 -91 -253 -111 -29 -13
-54 -24 -57 -24 -2 0 -36 -15 -77 -34 -136 -63 -149 -67 -162 -53 -6 6 -39 46
-71 87 -33 41 -63 77 -67 78 -5 2 -8 10 -8 17 0 7 -4 15 -9 17 -7 2 -135 161
-329 407 -15 19 -40 52 -57 72 -48 60 -358 450 -437 550 -24 31 -52 65 -78 96
-18 21 -11 24 23 9 17 -8 66 -28 107 -46z m-335 -176 c28 -35 58 -74 69 -86
10 -13 30 -39 45 -58 14 -19 32 -41 39 -48 7 -8 25 -30 40 -50 15 -21 33 -43
40 -51 8 -8 32 -39 55 -70 22 -31 48 -63 57 -71 9 -8 26 -29 38 -47 13 -18 32
-42 42 -55 11 -13 70 -86 130 -163 61 -77 123 -155 138 -174 178 -222 291
-367 292 -373 0 -5 -9 -8 -20 -8 -11 0 -20 -5 -20 -10 0 -6 -3 -9 -7 -8 -10 2
5 8 -308 -130 -143 -62 -264 -115 -270 -116 -5 -1 -35 -14 -65 -28 -30 -14
-89 -40 -130 -57 -41 -18 -99 -43 -127 -56 -29 -14 -63 -27 -75 -30 l-23 -6 0
881 c0 484 2 880 5 879 3 0 28 -29 55 -65z m5392 -814 c1 -484 -2 -880 -6
-880 -6 0 -179 73 -301 127 -25 11 -92 41 -150 66 -58 25 -123 53 -145 63 -22
9 -42 18 -45 19 -3 0 -27 11 -55 24 -27 12 -72 31 -99 42 -27 11 -58 25 -70
32 -12 6 -24 12 -28 13 -5 1 -10 3 -13 4 -3 1 -8 3 -12 5 -5 1 -28 11 -53 23
-25 12 -51 22 -59 22 -10 0 -10 6 4 26 14 22 359 458 485 614 22 27 161 202
364 458 97 122 178 222 180 222 2 0 3 -396 3 -880z m-2277 -217 c58 -25 125
-54 150 -65 113 -52 136 -61 155 -65 10 -2 22 -7 25 -12 3 -5 14 -11 25 -15
11 -3 106 -43 212 -89 l191 -83 -26 -35 c-14 -19 -112 -142 -216 -274 -105
-132 -195 -246 -201 -253 -5 -7 -15 -18 -20 -25 -34 -41 -63 -78 -85 -107 -14
-19 -33 -42 -42 -52 -10 -10 -18 -20 -18 -23 0 -3 -11 -18 -24 -33 -13 -15
-65 -79 -115 -142 -50 -63 -102 -128 -115 -145 -14 -16 -89 -111 -167 -210
-189 -241 -172 -225 -204 -191 -14 15 -25 29 -25 32 0 3 -7 13 -16 21 -9 9
-34 41 -57 72 -23 30 -49 63 -57 71 -8 9 -27 32 -42 51 -22 29 -253 320 -543
684 -44 55 -94 118 -111 141 -17 22 -38 49 -47 60 -13 16 -134 167 -159 199
-5 6 -33 41 -63 78 -30 38 -55 72 -55 77 0 5 10 12 22 16 13 4 56 22 98 42 41
19 95 42 120 52 25 10 72 31 105 46 33 15 62 28 65 28 5 1 338 145 385 167 11
5 107 47 214 93 l193 84 172 -75 c94 -41 218 -95 276 -120z m-1840 -574 c52
-66 119 -151 148 -187 75 -94 93 -116 164 -207 34 -44 65 -82 68 -85 4 -4 116
-145 163 -205 4 -5 15 -20 25 -31 9 -12 29 -37 44 -55 101 -129 211 -267 223
-282 21 -25 19 -28 -12 -16 -16 7 -37 15 -48 20 -11 4 -47 17 -80 29 -33 11
-67 24 -75 27 -8 3 -17 7 -20 8 -3 1 -12 4 -20 8 -8 3 -139 51 -290 107 -151
55 -286 105 -300 111 -14 6 -56 22 -95 36 -38 13 -79 28 -90 33 -11 4 -36 13
-55 20 -19 7 -44 16 -55 20 -11 5 -58 23 -105 40 -47 17 -94 35 -105 40 -11 5
-49 19 -85 31 -36 12 -69 26 -74 31 -6 4 -18 8 -27 8 -10 0 -44 11 -76 24 -32
14 -121 48 -198 76 -77 28 -146 55 -153 59 -12 7 3 17 63 42 11 4 55 24 98 44
43 19 84 35 91 35 6 0 16 4 22 9 5 5 54 28 109 51 55 24 123 53 150 65 28 13
136 60 240 105 105 45 204 88 220 95 17 8 32 15 35 15 3 0 48 -54 100 -121z
m2956 90 c108 -48 124 -55 204 -89 83 -36 139 -61 218 -96 29 -13 55 -24 57
-24 3 0 39 -16 81 -35 41 -19 78 -35 81 -35 3 0 39 -16 80 -35 41 -19 78 -35
82 -35 4 0 34 -13 67 -28 32 -15 70 -32 83 -38 24 -10 26 -9 -199 -92 -8 -3
-19 -6 -25 -8 -11 -3 -862 -322 -885 -331 -8 -3 -17 -7 -20 -8 -6 -1 -120 -43
-140 -52 -8 -3 -19 -7 -25 -9 -5 -1 -136 -49 -290 -107 -439 -164 -400 -151
-384 -128 8 10 50 63 94 117 43 54 97 121 120 150 39 52 241 307 269 341 19
24 108 135 118 148 4 6 24 30 44 55 41 52 37 47 134 170 41 52 77 97 80 100 3
3 22 26 43 53 21 26 40 47 41 47 2 0 34 -14 72 -31z"/>
</g>
</svg>
